HIERARCHY
ROOT Hips
{
	OFFSET 0.00000 0.00000 0.00000
	CHANNELS 6 Xposition Yposition Zposition Zrotation Yrotation Xrotation 
	JOINT LHipJoint
	{
		OFFSET 0 0 0
		CHANNELS 3 Zrotation Yrotation Xrotation
		JOINT LeftHip
		{
			OFFSET 1.41496 -1.84582 0.78394
			CHANNELS 3 Zrotation Yrotation Xrotation
			JOINT LeftKnee
			{
				OFFSET 2.58040 -7.08960 0.00000
				CHANNELS 3 Zrotation Yrotation Xrotation
				JOINT LeftAnkle
				{
					OFFSET 2.64719 -7.27309 0.00000
					CHANNELS 3 Zrotation Yrotation Xrotation
					JOINT LeftToe
					{
						OFFSET 0.20718 -0.56921 2.20259
						CHANNELS 3 Zrotation Yrotation Xrotation
						End Site
						{
							OFFSET 0.00000 -0.00000 1.14243
						}
					}
				}
			}
		}
	}
	JOINT RHipJoint
	{
		OFFSET 0 0 0
		CHANNELS 3 Zrotation Yrotation Xrotation
		JOINT RightHip
		{
			OFFSET -1.40551 -1.84582 0.78394
			CHANNELS 3 Zrotation Yrotation Xrotation
			JOINT RightKnee
			{
				OFFSET -2.56572 -7.04926 0.00000
				CHANNELS 3 Zrotation Yrotation Xrotation
				JOINT RightAnkle
				{
					OFFSET -2.57974 -7.08778 0.00000
					CHANNELS 3 Zrotation Yrotation Xrotation
					JOINT RightToe
					{
						OFFSET -0.26704 -0.73369 2.20815
						CHANNELS 3 Zrotation Yrotation Xrotation
						End Site
						{
							OFFSET -0.00000 -0.00000 1.16246
						}
					}
				}
			}
		}
	}
	JOINT lowerback
	{
		OFFSET 0 0 0
		CHANNELS 3 Zrotation Yrotation Xrotation
		JOINT Chest
		{
			OFFSET -0.04690 2.05196 -0.07017
			CHANNELS 3 Zrotation Yrotation Xrotation
			JOINT Chest2
			{
				OFFSET 0.04085 2.05260 0.00800
				CHANNELS 3 Zrotation Yrotation Xrotation
				JOINT lowerneck
				{
					OFFSET 0 0 0
					CHANNELS 3 Zrotation Yrotation Xrotation
					JOINT Neck
					{
						OFFSET -0.03582 1.80995 0.19301
						CHANNELS 3 Zrotation Yrotation Xrotation
						JOINT Head
						{
							OFFSET 0.00952 1.80195 -0.36389
							CHANNELS 3 Zrotation Yrotation Xrotation
							End Site
							{
								OFFSET 0.00392 1.85062 -0.14494
							}
						}
					}
				}
				JOINT LeftCollar
				{
					OFFSET 0 0 0
					CHANNELS 3 Zrotation Yrotation Xrotation
					JOINT LeftShoulder
					{
						OFFSET 3.55224 1.39726 -0.13667
CHANNELS 3 Zrotation Xrotation Yrotation
						JOINT LeftElbow
						{
OFFSET 0 -5.145070 -0.000000
CHANNELS 3 Zrotation Xrotation Yrotation
							JOINT LeftWrist
							{
OFFSET 0 -3.506460 0.000000
CHANNELS 3 Zrotation Xrotation Yrotation
								JOINT lhand
								{
									OFFSET 0 0 0
CHANNELS 3 Zrotation Xrotation Yrotation
									JOINT LFingers
									{
OFFSET 0 -0.629970 0.000000
CHANNELS 3 Zrotation Xrotation Yrotation
										End Site
										{
OFFSET 0 -0.507900 0.000000
										}
									}
								}
								JOINT LThumb
								{
OFFSET 0 0.000000 0.000000
CHANNELS 3 Zrotation Xrotation Yrotation
									End Site
									{
OFFSET 0 -0.515650 0.515650
									}
								}
							}
						}
					}
				}
				JOINT RightCollar
				{
					OFFSET 0 0 0
					CHANNELS 3 Zrotation Yrotation Xrotation
					JOINT RightShoulder
					{
						OFFSET -3.06467 1.61290 -0.28813
CHANNELS 3 Zrotation Xrotation Yrotation
						JOINT RightElbow
						{
OFFSET 0 -5.232000 -0.000000
CHANNELS 3 Zrotation Xrotation Yrotation
							JOINT RightWrist
							{
OFFSET 0 -3.656410 0.000000
CHANNELS 3 Zrotation Xrotation Yrotation
								JOINT rhand
								{
									OFFSET 0 0 0
CHANNELS 3 Zrotation Xrotation Yrotation
									JOINT RFingers
									{
OFFSET 0 -0.656810 0.000000
CHANNELS 3 Zrotation Xrotation Yrotation
										End Site
										{
OFFSET 0 -0.529530 0.000000
										}
									}
								}
								JOINT RThumb
								{
OFFSET 0 0.000000 0.000000
CHANNELS 3 Zrotation Xrotation Yrotation
									End Site
									{
OFFSET 0 -0.537620 0.537620
									}
								}
							}
						}
					}
				}
			}
		}
	}
}
MOTION
Frames: 8
Frame Time: 0.008333333333333333
-0.699678 21.157352 -1.971424 4.314918 1.571010 4.842300 0.000000 0.000000 0.000000 -27.105339 -14.322964 -30.984014 8.247228 16.298168 53.448523 0.921285 -13.129009 -18.194507 0.039976 1.290563 3.548651 0.000000 0.000000 0.000000 11.226695 -1.754635 -40.304685 -18.855769 -19.968523 86.652887 -0.047233 -7.406183 -11.552408 -0.930049 6.141861 -17.197142 -4.817665 -0.432561 16.335678 -1.496106 -1.640459 -0.268672 1.506520 -0.593779 -9.401876 -3.418225 -2.073615 -20.239018 2.802710 -2.346774 13.473862 1.195394 -1.023084 7.528761 0.000000 0.000000 0.000000 4.943505 11.418471 -52.869807 124.809810 -54.882422 89.627679 20.012763 -21.988613 15.004204 0.000000 0.000000 0.000000 -7.125000 0.000000 0.000000 -5.106977 14.104033 -3.723629 0.000000 0.000000 0.000000 -2.461397 32.299074 34.929895 -68.730467 -58.217886 -41.690412 -25.384204 -12.280519 -9.119181 0.000000 0.000000 0.000000 7.125000 0.000000 0.000000 1.106917 19.906080 0.664050
-0.707434 21.154857 -1.825471 4.410354 1.538029 4.923100 0.000000 0.000000 0.000000 -27.293816 -14.146492 -30.481442 8.243485 16.295504 53.435169 0.990855 -13.159427 -18.743920 0.038728 1.269688 3.491154 0.000000 0.000000 0.000000 11.009486 -1.391305 -41.089854 -18.824508 -19.966770 86.561262 -0.070300 -7.175350 -11.709624 -0.967346 6.259183 -17.539227 -4.924196 -0.437282 16.308835 -1.511517 -1.667977 -0.292615 1.556160 -0.601738 -9.409227 -3.431276 -2.082046 -20.291255 2.795729 -2.350922 13.452785 1.194382 -1.026051 7.530683 0.000000 0.000000 0.000000 4.800116 10.686212 -52.966221 125.434830 -54.672666 90.137636 20.075690 -21.861040 15.030811 0.000000 0.000000 0.000000 -7.125000 0.000000 0.000000 -5.065532 14.069298 -3.696887 0.000000 0.000000 0.000000 -2.587790 32.863021 34.874286 -69.278801 -58.310657 -42.157035 -25.373413 -12.552157 -9.138942 0.000000 0.000000 0.000000 7.125000 0.000000 0.000000 1.115550 19.885239 0.669749
-0.715191 21.152361 -1.679519 4.505789 1.505048 5.003900 0.000000 0.000000 0.000000 -27.482293 -13.970021 -29.978870 8.239742 16.292840 53.421814 1.060426 -13.189845 -19.293333 0.037481 1.248814 3.433656 0.000000 0.000000 0.000000 10.792277 -1.027974 -41.875024 -18.793247 -19.965016 86.469637 -0.093366 -6.944517 -11.866840 -1.004644 6.376505 -17.881312 -5.030726 -0.442003 16.281991 -1.526928 -1.695495 -0.316558 1.605800 -0.609696 -9.416579 -3.444327 -2.090477 -20.343492 2.788748 -2.355070 13.431708 1.193371 -1.029019 7.532606 0.000000 0.000000 0.000000 4.656726 9.953954 -53.062634 126.059849 -54.462909 90.647593 20.138617 -21.733466 15.057418 0.000000 0.000000 0.000000 -7.125000 0.000000 0.000000 -5.024086 14.034564 -3.670144 0.000000 0.000000 0.000000 -2.714183 33.426969 34.818677 -69.827135 -58.403429 -42.623658 -25.362622 -12.823794 -9.158704 0.000000 0.000000 0.000000 7.125000 0.000000 0.000000 1.124183 19.864398 0.675448
-0.723037 21.151561 -1.533223 4.598773 1.468749 5.091353 0.000000 0.000000 0.000000 -27.667723 -13.787419 -29.456609 8.220926 16.279340 53.354568 1.129113 -13.210743 -19.816332 0.035872 1.221358 3.358075 0.000000 0.000000 0.000000 10.582948 -0.666123 -42.634104 -18.729983 -19.961027 86.284256 -0.115820 -6.716497 -12.017115 -1.042356 6.491447 -18.217717 -5.137509 -0.451827 16.249631 -1.540212 -1.729341 -0.343711 1.659227 -0.620522 -9.423714 -3.444919 -2.088360 -20.393024 2.772897 -2.347029 13.411785 1.188915 -1.026397 7.533788 0.000000 0.000000 0.000000 4.483677 9.263129 -53.116190 126.713987 -54.233410 91.178826 20.203636 -21.556328 15.086153 0.000000 0.000000 0.000000 -7.125000 0.000000 0.000000 -4.981361 13.997323 -3.642627 0.000000 0.000000 0.000000 -2.861473 33.993585 34.804465 -70.455612 -58.503395 -43.159445 -25.328265 -13.091700 -9.187535 0.000000 0.000000 0.000000 7.125000 0.000000 0.000000 1.150070 19.835552 0.691785
-0.730962 21.152235 -1.386630 4.689622 1.429563 5.184597 0.000000 0.000000 0.000000 -27.850501 -13.599481 -28.917212 8.188990 16.256408 53.240416 1.197030 -13.223356 -20.316341 0.033950 1.188175 3.266753 0.000000 0.000000 0.000000 10.380475 -0.305558 -43.370477 -18.638864 -19.955091 86.017272 -0.137739 -6.490925 -12.161347 -1.080429 6.604317 -18.549179 -5.244512 -0.466091 16.212468 -1.551644 -1.768696 -0.373657 1.715948 -0.633842 -9.430661 -3.434667 -2.077063 -20.440202 2.749325 -2.328381 13.392867 1.181463 -1.018911 7.534328 0.000000 0.000000 0.000000 4.284813 8.608365 -53.132445 127.393470 -53.986727 91.728576 20.270474 -21.336050 15.116740 0.000000 0.000000 0.000000 -7.125000 0.000000 0.000000 -4.937521 13.957901 -3.614435 0.000000 0.000000 0.000000 -3.026952 34.562524 34.826284 -71.153844 -58.609622 -43.755429 -25.273398 -13.356357 -9.224259 0.000000 0.000000 0.000000 7.125000 0.000000 0.000000 1.190976 19.799738 0.717380
-0.738887 21.152910 -1.240037 4.780472 1.390377 5.277841 0.000000 0.000000 0.000000 -28.033279 -13.411543 -28.377815 8.157054 16.233476 53.126264 1.264948 -13.235968 -20.816350 0.032028 1.154992 3.175432 0.000000 0.000000 0.000000 10.178003 0.055007 -44.106849 -18.547744 -19.949156 85.750288 -0.159659 -6.265352 -12.305580 -1.118502 6.717187 -18.880642 -5.351515 -0.480356 16.175306 -1.563076 -1.808050 -0.403603 1.772670 -0.647163 -9.437608 -3.424415 -2.065766 -20.487381 2.725752 -2.309732 13.373948 1.174010 -1.011424 7.534868 0.000000 0.000000 0.000000 4.085949 7.953602 -53.148699 128.072952 -53.740045 92.278326 20.337313 -21.115772 15.147327 0.000000 0.000000 0.000000 -7.125000 0.000000 0.000000 -4.893681 13.918479 -3.586242 0.000000 0.000000 0.000000 -3.192430 35.131462 34.848103 -71.852076 -58.715849 -44.351414 -25.218531 -13.621014 -9.260983 0.000000 0.000000 0.000000 7.125000 0.000000 0.000000 1.231882 19.763925 0.742976
-0.746869 21.156233 -1.092791 4.866003 1.352420 5.378706 0.000000 0.000000 0.000000 -28.210182 -13.219747 -27.811635 8.107168 16.197202 52.947240 1.330197 -13.240286 -21.282223 0.029933 1.115991 3.068060 0.000000 0.000000 0.000000 9.989757 0.404994 -44.806265 -18.420628 -19.939324 85.377500 -0.181003 -6.041297 -12.443573 -1.158265 6.831191 -19.216846 -5.455196 -0.503606 16.130060 -1.571494 -1.857849 -0.436966 1.832982 -0.665533 -9.442712 -3.399573 -2.041548 -20.534655 2.692984 -2.276204 13.360290 1.163025 -0.997026 7.536406 0.000000 0.000000 0.000000 3.864757 7.350291 -53.123715 128.780771 -53.469939 92.847602 20.404037 -20.873953 15.183788 0.000000 0.000000 0.000000 -7.125000 0.000000 0.000000 -4.850283 13.872760 -3.558875 0.000000 0.000000 0.000000 -3.381599 35.696753 34.914712 -72.616237 -58.822844 -45.005032 -25.149207 -13.861711 -9.310359 0.000000 0.000000 0.000000 7.125000 0.000000 0.000000 1.283693 19.715536 0.775694
-0.754895 21.161562 -0.945051 4.947511 1.315392 5.485338 0.000000 0.000000 0.000000 -28.382641 -13.025031 -27.225194 8.043702 16.150833 52.719139 1.393428 -13.238331 -21.722273 0.027707 1.072590 2.948546 0.000000 0.000000 0.000000 9.812274 0.746977 -45.477721 -18.266278 -19.926543 84.924670 -0.201911 -5.818389 -12.576846 -1.199306 6.946051 -19.556637 -5.556365 -0.533653 16.078701 -1.577632 -1.915549 -0.472914 1.896010 -0.687722 -9.446421 -3.363691 -2.007555 -20.582002 2.653258 -2.231420 13.350612 1.149367 -0.977400 7.538699 0.000000 0.000000 0.000000 3.626674 6.785905 -53.067533 129.510028 -53.182115 93.431648 20.470673 -20.615839 15.224694 0.000000 0.000000 0.000000 -7.125000 0.000000 0.000000 -4.807219 13.822276 -3.532133 0.000000 0.000000 0.000000 -3.588691 36.259284 35.015206 -73.430273 -58.930420 -45.702253 -25.068947 -14.084282 -9.369307 0.000000 0.000000 0.000000 7.125000 0.000000 0.000000 1.343753 19.657634 0.813801
